<svg xmlns="http://www.w3.org/2000/svg" width="132" height="116" version="1.2"><defs><radialGradient id="c" cx="1.4" cy="161.1" r="57.6" href="#a"><stop stop-color="#c83b3b"/><stop offset="1" stop-color="#fb4949"/></radialGradient><linearGradient id="a" gradientUnits="userSpaceOnUse"/><clipPath id="b" clipPathUnits="userSpaceOnUse"><path d="M-240-672h1712v3704H-240z"/></clipPath></defs><g clip-path="url(#b)"><path d="M3.9 82C.1 66.2.1 49.9 3.9 34 7 18.1 21.1 5.5 39 2.8c17.5-3.3 35.6-3.3 53.1 0 18 2.7 32.2 15.4 35.1 31.5 3.7 15.7 3.7 31.8 0 47.4-3 16.4-17.6 29.3-36 31.7-16.9 3-34.4 3-51.3 0C21.6 111 7 98.3 3.9 82z" style="fill:url(#c)"/><path d="M68.2 76.2q0 .4-.2.7-.3.3-.6.5-.4.2-.8.2-.5 0-.8-.2L35.5 59.1q-.3-.1-.5-.4-.2-.3-.2-.7 0-.3.2-.6t.5-.5l30.3-18.2q.3-.2.8-.3.4 0 .8.2.3.2.6.5.2.3.2.7v9.6h22.1c.4 0 .8.2 1.1.4.3.3.5.6.5 1v14.4c0 .4-.2.7-.5 1-.3.3-.7.4-1.1.4H68.2z" style="fill:#fff"/></g></svg>