<svg xmlns="http://www.w3.org/2000/svg" width="132" height="116" version="1.2"><defs><radialGradient id="c" cx="-45.4" cy="-51" r="63.4" href="#a"><stop stop-color="#ffeb38"/><stop offset="1" stop-color="#f90"/></radialGradient><linearGradient id="a" gradientUnits="userSpaceOnUse"/><clipPath id="b" clipPathUnits="userSpaceOnUse"><path d="M-1016-672H696v3704h-1712z"/></clipPath></defs><g clip-path="url(#b)"><path d="M39.1 2.5c17.4-3.3 35.4-3.3 52.8 0 17.6 2.7 31.5 15.2 34.4 30.9 3.6 15.5 3.6 31.4 0 46.9-3 15.8-17 28.3-34.7 30.9-17.2 3.3-35 3.3-52.2 0-18-2.6-32.2-15.5-34.8-31.7-3.4-15-3.4-30.3 0-45.3C7.2 18.1 21.2 5.3 39.1 2.5z" style="fill:url(#c)"/><path d="M45.5 59.2q-.4 0-.8-.2t-.6-.5q-.2-.4-.1-.7 0-.4.2-.7l20.1-26.7q.2-.3.5-.4.3-.2.7-.2.4 0 .7.2.4.1.6.4l20 26.7q.2.3.3.7 0 .3-.2.7-.2.3-.6.5-.3.2-.7.2H75v19.5c0 .4-.2.7-.5 1-.2.2-.6.4-1 .4H57.6c-.4 0-.8-.2-1.1-.4-.3-.3-.4-.6-.4-1V59.2z" style="fill:#fff"/></g></svg>